<svg width="380" height="283" viewBox="0 0 380 283" fill="none" xmlns="http://www.w3.org/2000/svg">
<path d="M379.701 248.628H0V248.818H379.701V248.628Z" fill="#EBEBEB"/>
<path d="M59.5827 255.857H39.8383V256.047H59.5827V255.857Z" fill="#EBEBEB"/>
<path d="M152.207 253.8H111.123V253.99H152.207V253.8Z" fill="#EBEBEB"/>
<path d="M80.3295 262.913H60.342V263.103H80.3295V262.913Z" fill="#EBEBEB"/>
<path d="M341.655 261.637H327.052V261.827H341.655V261.637Z" fill="#EBEBEB"/>
<path d="M320.285 261.637H297.283V261.827H320.285V261.637Z" fill="#EBEBEB"/>
<path d="M237.533 258.432H196.1V258.621H237.533V258.432Z" fill="#EBEBEB"/>
<path d="M179.978 214.759H33.3453C32.1966 214.757 31.0956 214.299 30.2841 213.486C29.4725 212.673 29.0167 211.571 29.0167 210.423V4.29822C29.0267 3.15609 29.4869 2.06404 30.2974 1.25925C31.1079 0.45447 32.2032 0.00195651 33.3453 0H179.978C181.128 0 182.231 0.456847 183.044 1.27004C183.858 2.08323 184.314 3.18616 184.314 4.33619V210.423C184.314 211.573 183.858 212.676 183.044 213.489C182.231 214.302 181.128 214.759 179.978 214.759ZM33.3453 0.151881C32.247 0.153893 31.1943 0.591624 30.4183 1.36899C29.6424 2.14637 29.2066 3.19985 29.2066 4.29822V210.423C29.2066 211.521 29.6424 212.575 30.4183 213.352C31.1943 214.129 32.247 214.567 33.3453 214.569H179.978C181.077 214.567 182.131 214.13 182.908 213.352C183.685 212.575 184.123 211.522 184.125 210.423V4.29822C184.123 3.19916 183.685 2.14568 182.908 1.36853C182.131 0.591377 181.077 0.153888 179.978 0.151881H33.3453Z" fill="#EBEBEB"/>
<path d="M344.245 214.759H197.604C196.455 214.757 195.353 214.299 194.54 213.487C193.727 212.674 193.27 211.572 193.268 210.423V4.29822C193.28 3.1554 193.742 2.06335 194.553 1.25878C195.365 0.454205 196.461 0.00193518 197.604 0H344.245C345.385 0.00395231 346.479 0.457349 347.288 1.26192C348.096 2.06649 348.556 3.15741 348.566 4.29822V210.423C348.566 211.57 348.111 212.671 347.301 213.484C346.491 214.296 345.392 214.755 344.245 214.759ZM197.604 0.151881C196.505 0.153888 195.451 0.591377 194.674 1.36853C193.897 2.14568 193.46 3.19916 193.458 4.29822V210.423C193.46 211.522 193.897 212.575 194.674 213.352C195.451 214.13 196.505 214.567 197.604 214.569H344.245C345.344 214.567 346.397 214.13 347.174 213.352C347.951 212.575 348.389 211.522 348.391 210.423V4.29822C348.389 3.19916 347.951 2.14568 347.174 1.36853C346.397 0.591377 345.344 0.153888 344.245 0.151881H197.604Z" fill="#EBEBEB"/>
<path d="M143.405 171.572C143.033 171.572 142.646 171.572 142.289 171.618C134.407 172.248 128.028 179.759 127.526 189.001C127.414 191.04 127.588 193.085 128.043 195.076C129.783 203.057 130.619 211.208 130.534 219.377V243.229C130.534 244.961 131.733 246.366 133.207 246.366H236.576V171.572H143.405Z" fill="#F0F0F0"/>
<path d="M252.486 190.222C252.486 179.485 244.748 170.873 235.46 171.617C227.578 172.247 221.199 179.758 220.697 189C220.583 191.039 220.754 193.084 221.206 195.075C222.949 203.056 223.787 211.208 223.705 219.376V243.229C223.705 244.96 224.897 246.365 226.378 246.365H246.806C248.279 246.365 249.479 244.96 249.479 243.229V217.948C249.417 210.285 250.242 202.64 251.939 195.166C252.313 193.545 252.496 191.886 252.486 190.222Z" fill="#FAFAFA"/>
<path d="M214.653 204.066H108.367V246.358H214.653V204.066Z" fill="#F5F5F5"/>
<path d="M73.4797 153.399H185.294C187.006 153.399 188.702 153.737 190.284 154.392C191.866 155.047 193.303 156.008 194.514 157.218C195.725 158.429 196.685 159.867 197.34 161.449C197.996 163.031 198.333 164.726 198.333 166.438V211.243H60.4408V166.438C60.4408 164.726 60.7781 163.031 61.4333 161.449C62.0886 159.867 63.049 158.429 64.2598 157.218C65.4706 156.008 66.908 155.047 68.4899 154.392C70.0719 153.737 71.7674 153.399 73.4797 153.399Z" fill="#E6E6E6"/>
<path d="M82.9647 153.399H188.658C192.068 153.399 195.338 154.754 197.749 157.165C200.16 159.576 201.515 162.846 201.515 166.256V211.228H70.1384V166.249C70.1404 162.845 71.4917 159.582 73.896 157.173C76.3003 154.765 79.5615 153.407 82.9647 153.399Z" fill="#F5F5F5"/>
<path d="M111.951 202.548H214.607C215.348 202.548 216.059 202.842 216.583 203.366C217.107 203.89 217.402 204.601 217.402 205.342V209.846C217.4 210.586 217.104 211.294 216.58 211.817C216.057 212.339 215.347 212.633 214.607 212.633H111.951C111.73 212.633 111.517 212.545 111.36 212.388C111.204 212.231 111.116 212.019 111.116 211.797V203.383C111.116 203.162 111.204 202.949 111.36 202.793C111.517 202.636 111.73 202.548 111.951 202.548Z" fill="#EBEBEB"/>
<path d="M53.9176 246.357H237.374V246.532C237.374 247.088 237.153 247.621 236.76 248.014C236.367 248.407 235.834 248.628 235.278 248.628H56.0211C55.7453 248.629 55.4719 248.576 55.2167 248.471C54.9616 248.366 54.7296 248.212 54.5342 248.017C54.3387 247.822 54.1837 247.591 54.0779 247.336C53.9721 247.081 53.9176 246.808 53.9176 246.532V246.357Z" fill="#E6E6E6"/>
<path d="M54.7225 171.572C54.3478 171.572 53.9757 171.587 53.6061 171.618C45.7235 172.248 39.3446 179.759 38.8434 189.001C38.7314 191.04 38.9052 193.085 39.3598 195.076C41.1003 203.057 41.9358 211.208 41.8506 219.377V243.229C41.8506 244.961 43.0505 246.366 44.5237 246.366H109.126V171.572H54.7225Z" fill="#F0F0F0"/>
<path d="M125.036 190.222C125.036 179.485 117.305 170.873 108.01 171.617C100.127 172.247 93.7482 179.758 93.247 189C93.1325 191.039 93.3038 193.084 93.7558 195.075C95.5025 203.055 96.3407 211.207 96.2542 219.376V243.229C96.2542 244.96 97.4465 246.365 98.9273 246.365H119.325C120.798 246.365 121.998 244.96 121.998 243.229V217.948C121.936 210.285 122.762 202.64 124.458 195.166C124.842 193.546 125.036 191.887 125.036 190.222Z" fill="#FAFAFA"/>
<path d="M46.9919 104.221L334.357 104.221V17.3527L46.9919 17.3527V104.221Z" fill="#EBEBEB"/>
<path d="M54.5858 97.5527L326.755 97.5527V24.0274L54.5858 24.0274V97.5527Z" fill="#FAFAFA"/>
<path d="M210.385 97.5527H232.088L211.645 24.0273H189.942L210.385 97.5527Z" fill="white"/>
<path d="M236.333 97.5527H258.045L237.602 24.0273H215.89L236.333 97.5527Z" fill="white"/>
<path d="M165.983 97.5527H176.842L156.399 24.0273H145.547L165.983 97.5527Z" fill="white"/>
<path d="M185.56 97.5527H195.789V24.0274H185.56V97.5527Z" fill="#EBEBEB"/>
<path d="M185.552 24.0273H183.274V97.5527H185.552V24.0273Z" fill="#E0E0E0"/>
<path d="M46.9917 17.3604H45.3514V104.228H46.9917V17.3604Z" fill="#E0E0E0"/>
<path d="M331.464 244.398C333.313 244.392 335.084 243.655 336.392 242.348C337.699 241.04 338.437 239.268 338.443 237.419V169.126C338.437 167.277 337.699 165.506 336.392 164.198C335.084 162.891 333.313 162.153 331.464 162.147C329.615 162.153 327.845 162.891 326.538 164.199C325.232 165.506 324.496 167.278 324.492 169.126V237.419C324.496 239.268 325.232 241.039 326.538 242.347C327.845 243.655 329.615 244.392 331.464 244.398Z" fill="#F5F5F5"/>
<path d="M327.469 241.649C328.72 241.647 329.918 241.15 330.802 240.266C331.686 239.382 332.183 238.183 332.185 236.933V169.612C332.183 168.362 331.686 167.164 330.802 166.28C329.918 165.396 328.72 164.898 327.469 164.896C326.221 164.9 325.024 165.399 324.142 166.283C323.26 167.166 322.763 168.364 322.761 169.612V236.933C322.763 238.182 323.26 239.379 324.142 240.263C325.024 241.147 326.221 241.645 327.469 241.649Z" fill="#EBEBEB"/>
<path d="M321.333 244.398C323.182 244.392 324.953 243.655 326.259 242.347C327.565 241.039 328.301 239.268 328.305 237.419V169.126C328.301 167.278 327.565 165.506 326.259 164.199C324.953 162.891 323.182 162.153 321.333 162.147C319.484 162.153 317.713 162.891 316.405 164.198C315.098 165.506 314.36 167.277 314.354 169.126V237.419C314.36 239.268 315.098 241.04 316.405 242.348C317.713 243.655 319.484 244.392 321.333 244.398Z" fill="#F5F5F5"/>
<path d="M317.339 241.649C318.588 241.645 319.786 241.147 320.669 240.264C321.553 239.38 322.051 238.183 322.055 236.933V169.612C322.051 168.363 321.553 167.166 320.669 166.282C319.786 165.399 318.588 164.9 317.339 164.896C316.089 164.9 314.892 165.399 314.009 166.282C313.125 167.166 312.627 168.363 312.623 169.612V236.933C312.627 238.183 313.125 239.38 314.009 240.264C314.892 241.147 316.089 241.645 317.339 241.649Z" fill="#EBEBEB"/>
<path d="M311.203 244.398C313.051 244.392 314.822 243.655 316.129 242.347C317.435 241.039 318.17 239.268 318.174 237.419V169.126C318.17 167.278 317.435 165.506 316.129 164.199C314.822 162.891 313.051 162.153 311.203 162.147C309.354 162.153 307.582 162.891 306.275 164.198C304.967 165.506 304.23 167.277 304.224 169.126V237.419C304.23 239.268 304.967 241.04 306.275 242.348C307.582 243.655 309.354 244.392 311.203 244.398Z" fill="#F5F5F5"/>
<path d="M307.209 241.649C308.457 241.645 309.654 241.147 310.536 240.263C311.418 239.379 311.915 238.182 311.917 236.933V169.612C311.915 168.364 311.418 167.166 310.536 166.283C309.654 165.399 308.457 164.9 307.209 164.896C305.958 164.898 304.76 165.396 303.876 166.28C302.992 167.164 302.495 168.362 302.493 169.612V236.933C302.495 238.183 302.992 239.382 303.876 240.266C304.76 241.15 305.958 241.647 307.209 241.649Z" fill="#EBEBEB"/>
<path d="M294.094 237.42C294.094 241.274 297.217 244.398 301.069 244.398C304.921 244.398 308.044 241.274 308.044 237.42V169.134C308.044 165.28 304.921 162.155 301.069 162.155C297.217 162.155 294.094 165.28 294.094 169.134V237.42Z" fill="#F5F5F5"/>
<path d="M297.07 241.649C298.321 241.647 299.519 241.15 300.403 240.266C301.287 239.382 301.784 238.183 301.786 236.933V169.612C301.784 168.362 301.287 167.164 300.403 166.28C299.519 165.396 298.321 164.898 297.07 164.896C295.822 164.9 294.625 165.399 293.743 166.283C292.861 167.166 292.364 168.364 292.362 169.612V236.933C292.364 238.182 292.861 239.379 293.743 240.263C294.625 241.147 295.822 241.645 297.07 241.649Z" fill="#EBEBEB"/>
<path d="M290.934 244.398C292.784 244.392 294.555 243.655 295.863 242.348C297.17 241.04 297.907 239.268 297.913 237.419V169.126C297.907 167.277 297.17 165.506 295.863 164.198C294.555 162.891 292.784 162.153 290.934 162.147C289.085 162.153 287.314 162.891 286.006 164.198C284.699 165.506 283.962 167.277 283.956 169.126V237.419C283.962 239.268 284.699 241.04 286.006 242.348C287.314 243.655 289.085 244.392 290.934 244.398Z" fill="#F5F5F5"/>
<path d="M286.94 241.649C288.19 241.647 289.389 241.15 290.273 240.266C291.157 239.382 291.654 238.183 291.656 236.933V169.612C291.654 168.362 291.157 167.164 290.273 166.28C289.389 165.396 288.19 164.898 286.94 164.896C285.691 164.9 284.493 165.399 283.61 166.282C282.726 167.166 282.228 168.363 282.224 169.612V236.933C282.228 238.183 282.726 239.38 283.61 240.264C284.493 241.147 285.691 241.645 286.94 241.649Z" fill="#EBEBEB"/>
<path d="M280.804 244.398C282.652 244.392 284.423 243.655 285.73 242.347C287.036 241.039 287.771 239.268 287.775 237.419V169.126C287.771 167.278 287.036 165.506 285.73 164.199C284.423 162.891 282.652 162.153 280.804 162.147C278.955 162.153 277.183 162.891 275.876 164.198C274.568 165.506 273.831 167.277 273.825 169.126V237.419C273.831 239.268 274.568 241.04 275.876 242.348C277.183 243.655 278.955 244.392 280.804 244.398Z" fill="#F5F5F5"/>
<path d="M276.81 241.649C278.059 241.645 279.256 241.147 280.14 240.264C281.023 239.38 281.522 238.183 281.526 236.933V169.612C281.522 168.363 281.023 167.166 280.14 166.282C279.256 165.399 278.059 164.9 276.81 164.896C275.56 164.898 274.361 165.396 273.477 166.28C272.593 167.164 272.096 168.362 272.094 169.612V236.933C272.096 238.183 272.593 239.382 273.477 240.266C274.361 241.15 275.56 241.647 276.81 241.649Z" fill="#EBEBEB"/>
<path d="M270.666 244.398C272.515 244.392 274.287 243.655 275.594 242.348C276.902 241.04 277.639 239.268 277.645 237.419V169.126C277.639 167.277 276.902 165.506 275.594 164.198C274.287 162.891 272.515 162.153 270.666 162.147C268.818 162.153 267.047 162.891 265.741 164.199C264.434 165.506 263.699 167.278 263.695 169.126V237.419C263.699 239.268 264.434 241.039 265.741 242.347C267.047 243.655 268.818 244.392 270.666 244.398Z" fill="#F5F5F5"/>
<path d="M262.115 235.255H282.574C282.976 235.255 283.363 235.095 283.647 234.811C283.932 234.526 284.092 234.139 284.092 233.737C284.092 233.334 283.932 232.947 283.647 232.663C283.363 232.378 282.976 232.218 282.574 232.218H262.115C261.712 232.218 261.326 232.378 261.041 232.663C260.756 232.947 260.596 233.334 260.596 233.737C260.596 234.139 260.756 234.526 261.041 234.811C261.326 235.095 261.712 235.255 262.115 235.255Z" fill="#F5F5F5"/>
<path d="M262.115 176.402H282.574C282.976 176.402 283.363 176.242 283.647 175.957C283.932 175.672 284.092 175.286 284.092 174.883C284.092 174.48 283.932 174.094 283.647 173.809C283.363 173.524 282.976 173.364 282.574 173.364H262.115C261.712 173.364 261.326 173.524 261.041 173.809C260.756 174.094 260.596 174.48 260.596 174.883C260.596 175.286 260.756 175.672 261.041 175.957C261.326 176.242 261.712 176.402 262.115 176.402Z" fill="#F5F5F5"/>
<path d="M189.851 282.923C271.169 282.923 337.091 279.075 337.091 274.327C337.091 269.579 271.169 265.73 189.851 265.73C108.532 265.73 42.6101 269.579 42.6101 274.327C42.6101 279.075 108.532 282.923 189.851 282.923Z" fill="#F5F5F5"/>
<path d="M306.525 231.36H219.558C218.466 231.365 217.384 231.148 216.378 230.722C215.372 230.297 214.463 229.671 213.706 228.884C212.949 228.096 212.36 227.163 211.974 226.141C211.589 225.119 211.415 224.029 211.463 222.938L217.85 57.8437C217.958 55.5901 218.923 53.463 220.548 51.8975C222.173 50.332 224.334 49.4465 226.59 49.422H313.557C314.649 49.4168 315.732 49.6336 316.738 50.0592C317.744 50.4848 318.653 51.1103 319.41 51.8979C320.167 52.6854 320.756 53.6185 321.141 54.6406C321.527 55.6627 321.701 56.7524 321.652 57.8437L315.266 222.938C315.157 225.191 314.192 227.318 312.567 228.884C310.943 230.449 308.781 231.335 306.525 231.36Z" fill="#407BFF"/>
<path d="M321.595 113.542L321.064 127.186L321.898 127.218L322.43 113.574L321.595 113.542Z" fill="#407BFF"/>
<path d="M322.029 102.92L321.808 108.558L322.643 108.59L322.864 102.952L322.029 102.92Z" fill="#407BFF"/>
<path opacity="0.8" d="M306.525 231.36H219.558C218.466 231.365 217.384 231.148 216.378 230.722C215.372 230.297 214.463 229.671 213.706 228.884C212.949 228.096 212.36 227.163 211.974 226.141C211.589 225.119 211.415 224.029 211.463 222.938L217.85 57.8437C217.958 55.5901 218.923 53.463 220.548 51.8975C222.173 50.332 224.334 49.4465 226.59 49.422H313.557C314.649 49.4168 315.732 49.6336 316.738 50.0592C317.744 50.4848 318.653 51.1103 319.41 51.8979C320.167 52.6854 320.756 53.6185 321.141 54.6406C321.527 55.6627 321.701 56.7524 321.652 57.8437L315.266 222.938C315.157 225.191 314.192 227.318 312.567 228.884C310.943 230.449 308.781 231.335 306.525 231.36Z" fill="white"/>
<path d="M298.202 228.01H221.502C220.545 228.014 219.597 227.824 218.715 227.45C217.833 227.077 217.036 226.529 216.372 225.839C215.708 225.149 215.192 224.331 214.853 223.436C214.514 222.54 214.361 221.585 214.402 220.629L220.378 66.0143C220.475 64.0381 221.323 62.1734 222.749 60.8015C224.174 59.4295 226.07 58.6538 228.048 58.6329H304.748C305.706 58.6279 306.655 58.8175 307.537 59.1903C308.419 59.563 309.217 60.1112 309.881 60.8015C310.545 61.4918 311.061 62.3098 311.4 63.2059C311.738 64.1019 311.891 65.0574 311.848 66.0143L305.872 220.629C305.773 222.604 304.925 224.468 303.5 225.839C302.075 227.211 300.18 227.987 298.202 228.01Z" fill="#407BFF"/>
<path opacity="0.8" d="M263.786 219.255C265.816 217.264 265.909 214.067 263.994 212.115C262.079 210.163 258.881 210.195 256.851 212.186C254.821 214.178 254.728 217.374 256.643 219.327C258.558 221.279 261.756 221.247 263.786 219.255Z" fill="white"/>
<path d="M261.682 180.548C257.632 180.575 253.619 179.777 249.887 178.202C246.155 176.628 242.783 174.309 239.976 171.389C237.17 168.469 234.987 165.007 233.562 161.216C232.136 157.425 231.498 153.383 231.686 149.337L232.711 122.719H232.658C232.358 122.718 232.058 122.693 231.762 122.644L230.729 149.337C230.537 153.506 231.196 157.671 232.666 161.577C234.136 165.483 236.385 169.05 239.278 172.058C242.17 175.067 245.645 177.456 249.49 179.079C253.335 180.701 257.471 181.524 261.644 181.497C270.49 181.458 278.958 177.907 285.186 171.625C284.96 171.396 284.761 171.141 284.594 170.866C281.602 173.911 278.037 176.334 274.105 177.996C270.173 179.657 265.951 180.525 261.682 180.548Z" fill="white"/>
<path d="M265.358 85.3874C249.084 85.3874 235.134 97.5379 232.415 113.25C232.617 113.238 232.82 113.238 233.023 113.25C233.144 113.25 233.258 113.25 233.379 113.25C236.068 98.0618 249.578 86.3519 265.32 86.3519C269.371 86.3238 273.385 87.1212 277.118 88.6953C280.851 90.2695 284.224 92.5875 287.031 95.508C289.839 98.4285 292.022 101.89 293.448 105.682C294.873 109.474 295.512 113.517 295.324 117.563L294.094 149.352C293.894 154.316 292.54 159.166 290.137 163.515C290.439 163.602 290.728 163.73 290.995 163.894C293.456 159.427 294.841 154.448 295.043 149.352L296.273 117.563C296.468 113.392 295.812 109.226 294.343 105.317C292.875 101.408 290.626 97.8398 287.733 94.829C284.84 91.8182 281.364 89.4283 277.517 87.805C273.67 86.1817 269.533 85.3591 265.358 85.3874Z" fill="white"/>
<path d="M265.107 91.8879C270.224 91.8754 275.236 93.3445 279.536 96.1178C279.672 95.8235 279.837 95.5437 280.029 95.2825C275.581 92.4268 270.401 90.9183 265.115 90.9387C259.133 90.9579 253.301 92.8135 248.408 96.2545C248.576 96.5231 248.716 96.808 248.826 97.105C253.583 93.7251 259.271 91.9025 265.107 91.8879Z" fill="white"/>
<path d="M235.718 152.389C235.483 150.763 235.396 149.118 235.46 147.476L236.546 119.378C236.783 113.586 238.792 108.006 242.302 103.393C242.031 103.256 241.776 103.087 241.543 102.892C237.929 107.652 235.861 113.406 235.62 119.378L234.534 147.476C234.467 149.195 234.559 150.916 234.807 152.617C235.103 152.512 235.408 152.435 235.718 152.389Z" fill="white"/>
<path d="M286.879 101.585C286.649 101.819 286.395 102.028 286.12 102.208C289.884 107.129 291.798 113.218 291.527 119.408L290.441 147.506C290.094 154.87 286.941 161.823 281.63 166.936C276.319 172.05 269.252 174.936 261.88 175.004C256.027 175.031 250.33 173.116 245.682 169.559C245.41 169.77 245.114 169.949 244.801 170.091C249.655 173.915 255.662 175.981 261.842 175.953C269.469 175.884 276.78 172.898 282.275 167.608C287.77 162.318 291.032 155.125 291.39 147.506L292.476 119.408C292.761 112.994 290.78 106.685 286.879 101.585Z" fill="white"/>
<path d="M239.827 130.548L240.184 121.269C240.484 114.899 243.211 108.886 247.805 104.463C252.398 100.04 258.51 97.5429 264.887 97.484C270.255 97.4445 275.463 99.3086 279.587 102.745C283.71 106.182 286.483 110.969 287.411 116.256C287.722 116.201 288.037 116.173 288.353 116.173C287.409 110.65 284.532 105.642 280.236 102.045C275.94 98.4473 270.505 96.4944 264.902 96.5348C258.27 96.5935 251.913 99.1894 247.135 103.789C242.357 108.389 239.522 114.644 239.212 121.269L238.87 130.617C239.089 130.59 239.31 130.575 239.531 130.571L239.827 130.548Z" fill="white"/>
<path d="M272.01 167.266C268.907 168.665 265.542 169.392 262.138 169.4C259.046 169.429 255.981 168.827 253.129 167.631C250.278 166.435 247.7 164.67 245.554 162.443C243.408 160.217 241.739 157.576 240.648 154.683C239.558 151.79 239.069 148.704 239.212 145.615L239.432 140.026H239.136C238.917 140.027 238.699 140.012 238.483 139.98L238.262 145.6C238.114 148.807 238.62 152.01 239.75 155.015C240.88 158.02 242.61 160.763 244.835 163.077C247.059 165.392 249.732 167.229 252.69 168.476C255.648 169.724 258.829 170.356 262.039 170.334C265.643 170.33 269.203 169.553 272.481 168.056C272.294 167.811 272.136 167.546 272.01 167.266Z" fill="white"/>
<path d="M287.988 125.681C287.851 125.681 287.715 125.681 287.586 125.681L286.826 145.638C286.566 151.703 284.079 157.46 279.84 161.805C280.03 162.065 280.19 162.345 280.318 162.641C284.842 158.104 287.502 152.038 287.775 145.638L288.535 125.673C288.36 125.665 288.178 125.681 287.988 125.681Z" fill="white"/>
<path d="M273.187 103.924C270.524 102.722 267.634 102.104 264.712 102.109C259.076 102.159 253.672 104.365 249.61 108.274C245.549 112.183 243.138 117.499 242.872 123.13L242.075 143.747C242.031 144.963 242.092 146.18 242.257 147.385C242.533 147.133 242.836 146.911 243.161 146.724C243.038 145.737 242.992 144.742 243.024 143.747L243.821 123.13C244.075 117.753 246.377 112.678 250.255 108.946C254.133 105.214 259.292 103.107 264.674 103.059C267.438 103.062 270.169 103.655 272.686 104.798C272.825 104.491 272.993 104.199 273.187 103.924Z" fill="white"/>
<path d="M280.493 109.597C280.308 109.87 280.097 110.124 279.862 110.356C282.718 113.984 284.176 118.517 283.971 123.129L283.173 143.747C282.924 148.968 280.743 153.91 277.053 157.612C273.363 161.314 268.429 163.513 263.209 163.78C263.11 164.12 262.975 164.448 262.806 164.76C268.353 164.587 273.631 162.327 277.583 158.431C281.535 154.535 283.871 149.291 284.123 143.747L284.92 123.129C285.138 118.23 283.564 113.42 280.493 109.597Z" fill="white"/>
<path d="M260.695 109.073C260.71 108.741 260.756 108.41 260.832 108.086C258.407 108.612 256.116 109.633 254.104 111.086C254.397 111.235 254.667 111.424 254.909 111.648C256.658 110.433 258.621 109.559 260.695 109.073Z" fill="white"/>
<path d="M278.792 146.132C277.723 149.62 275.572 152.677 272.651 154.861C269.729 157.046 266.188 158.244 262.541 158.282C260.414 158.297 258.306 157.878 256.347 157.051C254.387 156.223 252.617 155.005 251.144 153.471C249.672 151.936 248.527 150.118 247.781 148.126C247.035 146.134 246.703 144.011 246.806 141.887L247.459 124.99C247.54 122.993 247.983 121.027 248.765 119.188C248.494 118.968 248.254 118.713 248.051 118.429C247.132 120.491 246.616 122.711 246.532 124.967L245.879 141.864C245.776 144.109 246.131 146.351 246.923 148.454C247.714 150.557 248.925 152.477 250.483 154.097C252.04 155.717 253.911 157.003 255.981 157.877C258.052 158.75 260.278 159.193 262.525 159.178C266.389 159.134 270.138 157.864 273.233 155.55C276.327 153.237 278.606 150 279.741 146.306C279.42 146.277 279.102 146.219 278.792 146.132Z" fill="white"/>
<path d="M280.219 124.99L280.083 128.499C280.334 128.454 280.587 128.428 280.842 128.423H281.047L281.176 124.967C281.326 121.38 280.303 117.842 278.263 114.888C276.223 111.934 273.276 109.725 269.869 108.595C269.899 108.933 269.899 109.274 269.869 109.612C273.011 110.733 275.712 112.83 277.575 115.598C279.438 118.366 280.364 121.657 280.219 124.99Z" fill="white"/>
<path d="M264.272 113.25C260.625 113.284 257.129 114.714 254.503 117.244C251.876 119.775 250.318 123.215 250.147 126.858L250.003 130.609C250.32 130.63 250.635 130.679 250.944 130.754L251.096 126.858C251.256 123.463 252.711 120.259 255.162 117.906C257.613 115.552 260.874 114.228 264.272 114.206C265.913 114.197 267.538 114.522 269.05 115.161C270.561 115.801 271.926 116.74 273.063 117.924C274.2 119.107 275.084 120.51 275.661 122.046C276.239 123.582 276.498 125.219 276.422 126.858L275.914 140.026C275.771 142.991 274.641 145.822 272.703 148.071C270.766 150.319 268.132 151.855 265.221 152.435C265.255 152.753 265.255 153.073 265.221 153.391C268.383 152.799 271.253 151.157 273.367 148.732C275.481 146.307 276.715 143.24 276.87 140.026L277.379 126.858C277.461 125.092 277.181 123.327 276.558 121.672C275.935 120.017 274.981 118.507 273.754 117.233C272.527 115.96 271.054 114.949 269.423 114.265C267.793 113.58 266.04 113.234 264.272 113.25Z" fill="white"/>
<path d="M255.402 124.413C255.599 124.401 255.797 124.401 255.994 124.413C256.812 123.004 257.984 121.832 259.393 121.015C260.802 120.197 262.4 119.761 264.029 119.75C265.022 119.75 266.009 119.919 266.945 120.251C267.051 119.948 267.186 119.655 267.348 119.378C266.297 118.993 265.186 118.795 264.067 118.793C262.182 118.813 260.337 119.345 258.732 120.334C257.126 121.323 255.82 122.73 254.954 124.405C255.103 124.4 255.253 124.403 255.402 124.413Z" fill="white"/>
<path d="M272.261 138.166C272.211 139.252 271.969 140.322 271.547 141.325C271.843 141.434 272.121 141.585 272.375 141.773C272.872 140.632 273.155 139.409 273.21 138.166L273.575 128.719C273.603 127.837 273.514 126.956 273.309 126.099C273.022 126.25 272.719 126.367 272.405 126.448C272.58 127.194 272.654 127.96 272.625 128.726L272.261 138.166Z" fill="white"/>
<path d="M265.031 146.853C264.35 147.018 263.652 147.102 262.951 147.104C261.794 147.106 260.649 146.874 259.585 146.42C258.521 145.967 257.56 145.302 256.761 144.467C255.961 143.631 255.34 142.642 254.934 141.558C254.528 140.475 254.346 139.321 254.4 138.166L254.567 133.89C254.248 133.863 253.933 133.804 253.625 133.716L253.45 138.166C253.394 139.447 253.598 140.726 254.051 141.925C254.504 143.124 255.196 144.219 256.086 145.142C256.975 146.066 258.043 146.799 259.224 147.296C260.406 147.794 261.676 148.047 262.958 148.038C263.754 148.035 264.547 147.938 265.32 147.75C265.198 147.46 265.101 147.16 265.031 146.853Z" fill="white"/>
<path d="M263.847 124.398C262.186 124.417 260.595 125.073 259.403 126.23C258.211 127.387 257.507 128.957 257.437 130.617L257.217 136.343C257.197 136.877 257.25 137.411 257.377 137.93C257.618 137.639 257.899 137.383 258.212 137.171C258.174 136.899 258.159 136.625 258.166 136.351L258.387 130.625C258.454 129.224 259.055 127.903 260.066 126.931C261.077 125.96 262.422 125.412 263.824 125.4C264.5 125.398 265.169 125.534 265.791 125.798C266.413 126.062 266.975 126.45 267.442 126.938C267.91 127.425 268.274 128.003 268.512 128.635C268.751 129.268 268.858 129.942 268.828 130.617L268.608 136.343C268.559 137.358 268.229 138.34 267.655 139.179C267.081 140.019 266.286 140.682 265.358 141.097C265.341 141.455 265.291 141.811 265.206 142.16C266.43 141.736 267.498 140.956 268.274 139.919C269.05 138.882 269.497 137.636 269.557 136.343L269.785 130.617C269.828 129.813 269.705 129.008 269.426 128.253C269.146 127.498 268.715 126.808 268.158 126.226C267.602 125.643 266.933 125.18 266.191 124.866C265.45 124.552 264.652 124.392 263.847 124.398Z" fill="white"/>
<path d="M279.817 56.1197H253.162C252.965 56.1198 252.769 56.0802 252.587 56.0033C252.406 55.9264 252.241 55.8138 252.104 55.6722C251.966 55.5305 251.859 55.3627 251.787 55.1786C251.716 54.9946 251.683 54.7981 251.689 54.6009C251.712 54.1925 251.89 53.8082 252.186 53.5261C252.482 53.244 252.874 53.0853 253.283 53.0821H279.931C280.129 53.0809 280.325 53.1197 280.508 53.1962C280.69 53.2726 280.856 53.385 280.994 53.5268C281.132 53.6686 281.24 53.8368 281.312 54.0213C281.384 54.2058 281.418 54.4029 281.412 54.6009C281.387 55.0086 281.209 55.3918 280.913 55.6736C280.617 55.9553 280.225 56.1147 279.817 56.1197Z" fill="#407BFF"/>
<path opacity="0.2" d="M238.126 82.7744C236.549 82.8979 234.967 82.9334 233.387 82.8807C232.828 82.7611 232.255 82.7253 231.686 82.7744H231.511C227.053 82.4478 222.642 81.6511 218.351 80.3975C217.91 80.2684 217.455 80.1165 216.992 79.957L213.301 175.543L237.966 159.087C239.081 158.355 240.007 157.369 240.667 156.21C241.327 155.051 241.702 153.752 241.763 152.419L244.239 88.5155C244.274 87.7199 244.137 86.9261 243.837 86.1884C243.537 85.4507 243.081 84.7865 242.501 84.2413C241.92 83.6962 241.229 83.2828 240.473 83.0297C239.718 82.7765 238.918 82.6894 238.126 82.7744Z" fill="black"/>
<path d="M232.18 75.6443C230.606 75.7705 229.026 75.8085 227.449 75.7582C226.89 75.6398 226.317 75.6014 225.747 75.6443H225.565C221.109 75.3208 216.7 74.524 212.412 73.2674C207.036 71.596 202.082 68.7886 197.885 65.0355C196.866 64.0537 195.503 63.5088 194.088 63.5167H187.648C186.205 63.5272 184.816 64.0677 183.745 65.0355C179.29 68.7773 174.124 71.5776 168.557 73.2674C164.206 74.5184 159.737 75.315 155.222 75.6443H155.04C154.467 75.6014 153.892 75.6398 153.331 75.7582C151.755 75.8086 150.178 75.7706 148.607 75.6443C147.798 75.5825 146.985 75.6833 146.216 75.941C145.446 76.1986 144.736 76.6077 144.127 77.1443C143.518 77.6808 143.023 78.3339 142.671 79.0649C142.319 79.796 142.117 80.5902 142.077 81.4006L139.601 145.312C139.544 146.606 139.813 147.893 140.382 149.057C140.951 150.22 141.803 151.222 142.859 151.972L178.665 177.154C179.983 178.079 181.557 178.572 183.168 178.566H189.6C191.244 178.56 192.851 178.069 194.217 177.154L231.967 151.972C233.079 151.238 234.002 150.253 234.662 149.096C235.321 147.939 235.699 146.642 235.764 145.312L238.232 81.4006C238.265 80.6104 238.128 79.8224 237.831 79.0893C237.534 78.3562 237.084 77.695 236.511 77.15C235.938 76.6049 235.255 76.1886 234.508 75.929C233.761 75.6693 232.967 75.5723 232.18 75.6443Z" fill="#407BFF"/>
<path opacity="0.8" d="M232.18 75.6443C230.606 75.7705 229.026 75.8085 227.449 75.7582C226.89 75.6398 226.317 75.6014 225.747 75.6443H225.565C221.109 75.3208 216.7 74.524 212.412 73.2674C207.036 71.596 202.082 68.7886 197.885 65.0355C196.866 64.0537 195.503 63.5088 194.088 63.5167H187.648C186.205 63.5272 184.816 64.0677 183.745 65.0355C179.29 68.7773 174.124 71.5776 168.557 73.2674C164.206 74.5184 159.737 75.315 155.222 75.6443H155.04C154.467 75.6014 153.892 75.6398 153.331 75.7582C151.755 75.8086 150.178 75.7706 148.607 75.6443C147.798 75.5825 146.985 75.6833 146.216 75.941C145.446 76.1986 144.736 76.6077 144.127 77.1443C143.518 77.6808 143.023 78.3339 142.671 79.0649C142.319 79.796 142.117 80.5902 142.077 81.4006L139.601 145.312C139.544 146.606 139.813 147.893 140.382 149.057C140.951 150.22 141.803 151.222 142.859 151.972L178.665 177.154C179.983 178.079 181.557 178.572 183.168 178.566H189.6C191.244 178.56 192.851 178.069 194.217 177.154L231.967 151.972C233.079 151.238 234.002 150.253 234.662 149.096C235.321 147.939 235.699 146.642 235.764 145.312L238.232 81.4006C238.265 80.6104 238.128 79.8224 237.831 79.0893C237.534 78.3562 237.084 77.695 236.511 77.15C235.938 76.6049 235.255 76.1886 234.508 75.929C233.761 75.6693 232.967 75.5723 232.18 75.6443Z" fill="white"/>
<path d="M143.785 145.19L146.147 84.0812C146.199 82.9609 146.679 81.903 147.486 81.1249C148.294 80.3467 149.369 79.9074 150.491 79.8969H151.88C157.889 79.8222 163.86 78.928 169.628 77.239C175.113 75.5765 180.257 72.9454 184.816 69.4703C185.566 68.8585 186.505 68.5244 187.474 68.5244C188.442 68.5244 189.381 68.8585 190.131 69.4703C194.458 72.9674 199.412 75.6067 204.727 77.2466C210.425 78.9442 216.332 79.8388 222.277 79.9045H223.56C224.113 79.8997 224.662 80.0079 225.172 80.2225C225.681 80.4371 226.142 80.7535 226.525 81.1524C226.908 81.5512 227.206 82.0242 227.4 82.5421C227.594 83.0601 227.68 83.6123 227.654 84.1648L225.292 145.198C225.26 145.885 225.067 146.556 224.728 147.155C224.389 147.754 223.913 148.265 223.34 148.646L185.826 173.706C185.13 174.181 184.307 174.435 183.464 174.435C182.621 174.435 181.798 174.181 181.102 173.706L145.517 148.646C144.96 148.262 144.51 147.744 144.207 147.14C143.904 146.536 143.759 145.866 143.785 145.19Z" fill="#407BFF"/>
<path opacity="0.2" d="M154.212 141.963L156.217 90.0122C161.585 89.5875 166.897 88.6233 172.073 87.1341C177.352 85.5463 182.385 83.2306 187.026 80.2539C191.471 83.2445 196.332 85.5628 201.454 87.1341C206.553 88.6298 211.793 89.5943 217.09 90.0122L215.078 141.963L183.836 162.801L154.212 141.963Z" fill="white"/>
<path opacity="0.2" d="M164.714 136.533L166.165 99.0106C168.944 98.4866 171.746 97.826 174.518 97.0286C178.672 95.8049 182.698 94.1823 186.54 92.1836C190.254 94.1891 194.162 95.8124 198.204 97.0286C200.948 97.8234 203.689 98.4841 206.428 99.0106L204.978 136.533L184.322 150.361L164.714 136.533Z" fill="white"/>
<path d="M95.791 77.9455C94.3709 80.8919 92.9357 83.9144 91.5535 86.8912C90.865 88.41 90.2018 89.8984 89.5639 91.3565C88.9684 92.7509 88.4462 94.1754 87.9995 95.6243C87.6867 97.0092 87.5439 98.4271 87.5743 99.8466C87.5743 101.441 87.5743 103.097 87.5743 104.745L87.8249 114.754L84.3164 115.27C83.438 111.964 82.7258 108.616 82.1825 105.238C81.9243 103.537 81.6661 101.829 81.5294 100.059C81.4535 99.1783 81.3928 98.2822 81.3776 97.3406C81.3776 96.8622 81.3776 96.3837 81.3776 95.8218C81.3776 95.5636 81.4155 95.2902 81.4611 94.9864C81.5067 94.6827 81.5522 94.47 81.5978 94.227C81.9742 92.4205 82.4818 90.6439 83.1166 88.9112C83.7013 87.2557 84.3392 85.6382 84.9999 84.051C86.3289 80.8691 87.7565 77.8012 89.3513 74.7256L95.791 77.9455Z" fill="#FF8B7B"/>
<path d="M90.3689 116.136L87.4528 112.779L84.157 112.946C82.6382 116.554 85.9416 118.855 85.9416 118.855L86.5263 120.829C86.5867 121.026 86.6896 121.207 86.8277 121.36C86.9658 121.512 87.1358 121.633 87.3256 121.712C87.5154 121.792 87.7204 121.829 87.9261 121.821C88.1318 121.812 88.3332 121.759 88.516 121.664L90.3689 120.745C90.6269 120.619 90.8437 120.422 90.9942 120.178C91.1448 119.933 91.2229 119.651 91.2194 119.363V118.232C91.1882 117.456 90.8875 116.714 90.3689 116.136Z" fill="#FF8B7B"/>
<path d="M81.0889 266.148C80.5292 265.898 80.0015 265.582 79.517 265.206C79.4914 265.188 79.472 265.162 79.4611 265.132C79.4503 265.102 79.4486 265.07 79.4562 265.039C79.4643 265.007 79.4815 264.978 79.5057 264.955C79.5299 264.932 79.5602 264.916 79.5929 264.91C79.8739 264.857 82.3571 264.401 82.9495 265.054C83.0145 265.129 83.0586 265.22 83.0773 265.317C83.0959 265.415 83.0885 265.515 83.0558 265.609C83.0236 265.77 82.9509 265.92 82.8446 266.044C82.7383 266.169 82.6019 266.265 82.4482 266.323C81.989 266.432 81.5056 266.37 81.0889 266.148ZM80.0409 265.168C81.0434 265.859 81.8939 266.178 82.3191 266.011C82.4198 265.97 82.5082 265.904 82.576 265.819C82.6438 265.734 82.6887 265.633 82.7064 265.525C82.7313 265.49 82.7446 265.447 82.7446 265.404C82.7446 265.36 82.7313 265.318 82.7064 265.282C82.3875 264.933 81.0358 265.032 80.0409 265.168Z" fill="#407BFF"/>
<path d="M79.5474 265.229L79.479 265.176C79.4657 265.15 79.4587 265.122 79.4587 265.092C79.4587 265.063 79.4657 265.035 79.479 265.009C79.479 264.933 80.3447 263.065 81.3092 262.731C81.4318 262.68 81.565 262.659 81.6973 262.671C81.8296 262.683 81.957 262.727 82.0686 262.799C82.1873 262.852 82.284 262.945 82.3422 263.061C82.4004 263.177 82.4164 263.31 82.3875 263.437C82.2053 264.234 80.4359 265.146 79.6765 265.237C79.6556 265.245 79.6333 265.248 79.6111 265.247C79.5889 265.245 79.5672 265.239 79.5474 265.229ZM81.8256 263.05C81.6985 263 81.5577 263 81.4307 263.05C80.8535 263.247 80.2536 264.234 79.9119 264.842C80.732 264.606 81.9167 263.855 82.023 263.376C82.023 263.293 82.023 263.194 81.8559 263.088L81.8256 263.05Z" fill="#407BFF"/>
<path d="M107.303 50.5908C107.934 54.7523 109.354 63.8272 106.324 66.5383C106.324 66.5383 107.266 70.7681 114.973 70.92C123.456 71.0871 119.219 66.7889 119.219 66.7889C114.662 65.5966 114.913 62.1717 115.87 58.967L107.303 50.5908Z" fill="#FF8B7B"/>
<path d="M124.663 43.6961L124.527 43.6278C124.467 43.5655 124.433 43.4825 124.433 43.3962C124.433 43.3098 124.467 43.2268 124.527 43.1645C124.855 42.7475 125.277 42.414 125.759 42.191C126.241 41.968 126.768 41.8618 127.299 41.8811C127.342 41.8859 127.383 41.8991 127.421 41.92C127.459 41.9409 127.492 41.9692 127.519 42.0031C127.546 42.037 127.566 42.0759 127.577 42.1175C127.589 42.1592 127.592 42.2027 127.587 42.2457C127.576 42.3337 127.531 42.4138 127.461 42.4691C127.392 42.5244 127.303 42.5505 127.215 42.5418C126.796 42.5344 126.381 42.6246 126.003 42.8051C125.624 42.9857 125.293 43.2517 125.036 43.5822C124.991 43.6352 124.932 43.6741 124.866 43.6943C124.8 43.7146 124.73 43.7152 124.663 43.6961Z" fill="#263238"/>
<path d="M126.243 47.7891C126.569 49.1195 127.081 50.3976 127.762 51.5861C127.457 51.7639 127.116 51.8724 126.764 51.9039C126.413 51.9353 126.058 51.8891 125.727 51.7683L126.243 47.7891Z" fill="#FF5652"/>
<path d="M125.856 46.7717C125.787 47.3336 126.03 47.8196 126.395 47.8576C126.759 47.8956 127.109 47.4627 127.154 46.9008C127.2 46.3388 126.98 45.8528 126.615 45.8148C126.251 45.7768 125.924 46.2097 125.856 46.7717Z" fill="#263238"/>
<path d="M126.478 45.8295L127.868 45.5713C127.868 45.5713 127.048 46.5585 126.478 45.8295Z" fill="#263238"/>
<path d="M132.622 268.927L140.019 266.588L139.297 251.521L131.893 253.853L132.622 268.927Z" fill="#FF8B7B"/>
<path d="M71.9077 263.543L78.5677 265.426L84.1493 250.002L77.4817 248.119L71.9077 263.543Z" fill="#FF8B7B"/>
<path d="M79.4183 264.097L72.2799 261.059C72.1555 261.007 72.0164 261.001 71.8882 261.043C71.7599 261.085 71.651 261.172 71.5812 261.287L68.2323 266.717C68.1511 266.852 68.0998 267.003 68.0817 267.16C68.0636 267.317 68.0791 267.476 68.1273 267.626C68.1754 267.776 68.2551 267.914 68.3609 268.031C68.4668 268.148 68.5964 268.241 68.7411 268.304C71.2547 269.307 72.5381 269.663 75.6516 270.992C77.5805 271.805 79.0917 274.281 83.3368 274.281C86.2073 274.281 86.7541 271.683 85.615 271.304C80.2992 269.603 81.3851 267.074 80.2992 264.925C80.1134 264.553 79.8011 264.259 79.4183 264.097Z" fill="#263238"/>
<path d="M142.661 267.629C142.034 267.611 141.41 267.527 140.801 267.378C140.769 267.369 140.74 267.352 140.717 267.328C140.694 267.304 140.679 267.274 140.672 267.241C140.666 267.21 140.669 267.177 140.681 267.148C140.693 267.118 140.714 267.093 140.74 267.074C140.975 266.922 143.018 265.555 143.876 265.92C143.969 265.961 144.05 266.025 144.112 266.106C144.173 266.187 144.212 266.282 144.226 266.383C144.264 266.539 144.261 266.702 144.217 266.857C144.173 267.011 144.09 267.152 143.975 267.264C143.596 267.541 143.129 267.67 142.661 267.629ZM141.264 267.143C142.487 267.386 143.405 267.34 143.747 267.021C143.822 266.944 143.875 266.849 143.902 266.745C143.929 266.641 143.928 266.532 143.899 266.429C143.895 266.384 143.88 266.341 143.854 266.304C143.829 266.267 143.795 266.236 143.755 266.216C143.314 266.019 142.114 266.619 141.249 267.143H141.264Z" fill="#407BFF"/>
<path d="M140.839 267.378H140.755C140.73 267.365 140.709 267.346 140.694 267.322C140.679 267.298 140.671 267.27 140.672 267.241C140.672 267.15 140.611 265.138 141.347 264.47C141.439 264.381 141.55 264.315 141.671 264.277C141.792 264.239 141.921 264.229 142.046 264.249C142.178 264.253 142.304 264.3 142.407 264.382C142.51 264.464 142.583 264.578 142.616 264.705C142.798 265.464 141.575 266.983 140.922 267.386C140.894 267.391 140.865 267.388 140.839 267.378ZM141.94 264.546C141.805 264.548 141.675 264.599 141.575 264.69C141.135 265.092 141.021 266.209 140.998 266.892C141.651 266.361 142.403 265.229 142.289 264.751C142.289 264.675 142.228 264.576 142.016 264.553L141.94 264.546Z" fill="#407BFF"/>
<path d="M140.224 266.406H132.371C132.237 266.401 132.105 266.448 132.004 266.537C131.902 266.626 131.838 266.75 131.825 266.884L131.134 273.096C131.123 273.255 131.146 273.415 131.199 273.565C131.253 273.715 131.337 273.853 131.445 273.97C131.554 274.086 131.686 274.179 131.832 274.243C131.978 274.307 132.136 274.341 132.295 274.341C135.037 274.296 136.351 274.136 139.806 274.136C141.932 274.136 145.038 274.357 147.977 274.357C150.916 274.357 150.969 271.456 149.739 271.19C144.226 270.013 143.307 268.388 141.386 266.838C141.058 266.567 140.649 266.415 140.224 266.406Z" fill="#263238"/>
<path opacity="0.2" d="M139.29 251.521L139.684 259.594L132.265 261.629L131.893 253.86L139.29 251.521Z" fill="black"/>
<path opacity="0.2" d="M77.4818 248.127L84.1417 250.01L81.2712 257.954L74.6036 256.07L77.4818 248.127Z" fill="black"/>
<path d="M92.647 67.4195C89.7309 68.103 86.5262 78.6055 86.5262 78.6055L94.6594 87.2095C94.6594 87.2095 101.57 77.2841 100.211 73.6998C98.7754 69.9635 96.0567 66.6145 92.647 67.4195Z" fill="#407BFF"/>
<path opacity="0.2" d="M92.647 67.4195C89.7309 68.103 86.5262 78.6055 86.5262 78.6055L94.6594 87.2095C94.6594 87.2095 101.57 77.2841 100.211 73.6998C98.7754 69.9635 96.0567 66.6145 92.647 67.4195Z" fill="black"/>
<path opacity="0.4" d="M97.1503 74.0033C98.6691 72.6364 99.6259 73.0161 100.294 74.0792C100.932 77.17 96.6111 84.1717 94.9784 86.6625C94.2873 83.7388 93.8013 77.1092 97.1503 74.0033Z" fill="black"/>
<path d="M129.858 69.8653C130.26 72.9029 130.01 82.236 124.117 110.471L95.7226 109.916C96.7174 98.3809 97.0515 91.2577 92.6014 67.4504C96.6142 66.7124 100.675 66.2632 104.752 66.1063C109.056 65.8829 113.37 65.9666 117.662 66.3569C121.77 66.8125 126.273 67.7086 128.293 68.1415C128.701 68.2313 129.07 68.4454 129.35 68.7542C129.63 69.0631 129.808 69.4513 129.858 69.8653Z" fill="#407BFF"/>
<path opacity="0.2" d="M129.858 69.8653C130.26 72.9029 130.01 82.236 124.117 110.471L95.7226 109.916C96.7174 98.3809 97.0515 91.2577 92.6014 67.4504C96.6142 66.7124 100.675 66.2632 104.752 66.1063C109.056 65.8829 113.37 65.9666 117.662 66.3569C121.77 66.8125 126.273 67.7086 128.293 68.1415C128.701 68.2313 129.07 68.4454 129.35 68.7542C129.63 69.0631 129.808 69.4513 129.858 69.8653Z" fill="black"/>
<path d="M107.296 43.0581C106.886 50.0067 106.536 52.9304 109.612 56.8185C114.168 62.6507 122.765 61.3749 125.233 54.6694C127.45 48.5942 127.747 38.2511 121.352 34.8642C114.958 31.4772 107.698 36.1096 107.296 43.0581Z" fill="#FF8B7B"/>
<path d="M116.637 110.296C116.637 110.296 112.513 160.993 107.076 187.899C102.686 209.656 82.7748 256.67 82.7748 256.67L74.11 253.01C74.11 253.01 84.1417 199.761 90.9232 186.813C98.5172 142.153 86.2225 126.927 95.7378 109.916L116.637 110.296Z" fill="#263238"/>
<path opacity="0.4" d="M108.913 138.021C105.807 151.227 107.82 163.218 109.923 171.131C111.169 162.649 112.293 153.513 113.25 144.955C111.936 142.494 110.288 140.171 108.913 138.021Z" fill="black"/>
<path d="M124.132 110.44C124.132 110.44 134.915 159.945 136.282 181.11C137.725 203.133 140.618 255.303 140.618 255.303L131.111 257.855C131.111 257.855 120.418 204.082 121.239 187.899C115.923 164.935 97.3857 109.946 97.3857 109.946L124.132 110.44Z" fill="#263238"/>
<path d="M142.054 257.718L129.706 259.799L128.521 255.394L141.742 253.146L142.054 257.718Z" fill="#407BFF"/>
<path d="M84.3316 257.104L72.7659 253.831L73.4114 249.54L85.7744 252.585L84.3316 257.104Z" fill="#407BFF"/>
<path d="M95.3886 108.214L93.9913 110.728C93.8849 110.918 94.1128 111.123 94.4393 111.131L124.215 111.715C124.474 111.715 124.694 111.601 124.717 111.442L125.089 108.906C125.089 108.731 124.899 108.579 124.618 108.571L95.8594 108.009C95.7698 107.999 95.6789 108.012 95.5962 108.048C95.5135 108.084 95.4418 108.142 95.3886 108.214Z" fill="white"/>
<path d="M99.1019 111.504H98.3425C98.1907 111.504 98.0767 111.412 98.0919 111.321L98.6007 108.025C98.6007 107.934 98.7526 107.858 98.9045 107.858H99.6639C99.8158 107.858 99.9297 107.942 99.9145 108.041L99.4057 111.329C99.3981 111.428 99.2614 111.504 99.1019 111.504Z" fill="#263238"/>
<path d="M117.776 111.868H117.016C116.864 111.868 116.75 111.784 116.766 111.686L117.274 108.397C117.274 108.299 117.426 108.223 117.586 108.223H118.345C118.497 108.223 118.611 108.306 118.596 108.405L118.087 111.693C118.064 111.792 117.928 111.868 117.776 111.868Z" fill="#263238"/>
<path d="M131.43 73.4414C132.819 76.3955 134.369 79.4635 135.986 82.372C137.521 85.2553 139.27 88.0196 141.218 90.6419C141.461 90.9532 141.704 91.2722 141.902 91.5C142.099 91.7278 142.35 92.0012 142.608 92.2594C143.139 92.7774 143.702 93.2618 144.294 93.7098C145.568 94.6717 146.905 95.5469 148.296 96.3298C151.208 97.9729 154.213 99.446 157.295 100.742L156.368 104.159C152.793 103.557 149.292 102.572 145.927 101.22C144.176 100.527 142.484 99.691 140.869 98.7219C140.02 98.2067 139.205 97.6359 138.431 97.0132C138.029 96.6943 137.672 96.3374 137.254 95.9653C136.837 95.5932 136.495 95.2059 136.222 94.8717C135.568 94.1655 134.991 93.4441 134.399 92.7226C133.807 92.0012 133.275 91.2494 132.759 90.4976C131.696 88.9788 130.739 87.46 129.812 85.9412C127.965 82.8557 126.319 79.6545 124.884 76.3575L131.43 73.4414Z" fill="#FF8B7B"/>
<path d="M127.868 68.0047C134.521 69.4551 136.13 79.9121 136.13 79.9121L129.577 87.5517C129.577 87.5517 119.165 77.6794 119.705 72.3105C120.061 68.3464 124.238 67.2149 127.868 68.0047Z" fill="#407BFF"/>
<path opacity="0.2" d="M127.868 68.0047C134.521 69.4551 136.13 79.9121 136.13 79.9121L129.577 87.5517C129.577 87.5517 119.165 77.6794 119.705 72.3105C120.061 68.3464 124.238 67.2149 127.868 68.0047Z" fill="black"/>
<path d="M164.988 103.431L163.142 101.251C163.142 101.251 157.189 99.8618 154.554 101.153L153.741 103.606L160.393 107.053L161.783 107.706C162.114 107.862 162.489 107.892 162.84 107.793C163.192 107.694 163.496 107.472 163.697 107.167L165.033 105.284C165.231 105.013 165.334 104.685 165.326 104.35C165.318 104.015 165.199 103.691 164.988 103.431Z" fill="#FF8B7B"/>
<path d="M126.714 81.4458C127.876 78.3475 128.521 74.6112 128.233 72.8266C127.838 76.0009 125.423 80.3447 123 83.5722C118.648 85.3114 113.958 86.0427 109.283 85.7113C104.607 85.3799 100.067 83.9943 96.0036 81.6585C94.0064 77.6184 92.3509 71.3078 93.3989 67.5412C92.1155 69.4549 91.1663 74.6871 91.7738 78.3778C89.731 76.2895 88.5387 73.9429 88.5311 71.6343C88.5311 60.5395 101.904 61.2153 102.086 53.1201C102.269 45.0249 98.9729 28.4775 115.482 32.0087C126.296 31.4999 124.033 41.038 122.271 46.8399C120.669 52.1937 137.027 72.7431 126.714 81.4458Z" fill="#263238"/>
<path d="M115.513 32.0093C122.271 28.4021 129.182 34.0825 125.643 40.0286C122.522 39.8919 119.993 41.8739 122.438 45.838C115.186 41.2664 110.744 32.4118 115.513 32.0093Z" fill="#263238"/>
<path d="M122.621 44.8047C123.356 46.0715 123.665 47.541 123.502 48.9966C123.289 50.8647 121.831 50.8647 120.806 49.756C119.781 48.6473 118.93 46.3463 119.522 44.9186C119.641 44.6104 119.847 44.3438 120.116 44.1519C120.385 43.9599 120.704 43.8512 121.034 43.839C121.364 43.8269 121.69 43.9119 121.972 44.0836C122.254 44.2553 122.48 44.506 122.621 44.8047Z" fill="#FF8B7B"/>
</svg>
